<svg xmlns="http://www.w3.org/2000/svg" width="240" height="64" viewBox="0 0 240 64">
	<g>
		<path fill="#2E2E2E" d="M85.2,8.3c-0.3-0.1-0.7-0.1-1.1-0.1c-6.5,0-22.4,6.9-30.8,10.8c-1.6-0.5-3.5-0.8-5.4-0.8
			c-1.7,0-3.4,0.2-4.9,0.6c-7.4-4-21.5-11-29.5-11c-1.1,0-2.1,0.1-3,0.4c-9.3,3.3-7.7,45.2,0,46.6c0.3,0.1,0.7,0.1,1.1,0.1
			c6.8,0,23.7-7.5,31.8-11.3c1.4,0.8,2.9,1.2,4.5,1.2c1.4,0,2.8-0.4,4.1-1c7.2,3.9,22,11.4,30.3,11.4c1.1,0,2.1-0.1,3-0.4
			C94.5,51.5,92.8,9.6,85.2,8.3z"/>
		<path fill="#52E0E1" d="M84,51.4c-0.3,0.1-0.8,0.2-1.8,0.2c-4,0-11-2.3-19.8-6.5c-2.7-1.3-5.2-2.6-7.2-3.7c2.2-2.1,3.8-5.1,4.7-8.1
			h4.3c1,0,1.8-0.8,1.8-1.8s-0.8-1.8-1.8-1.8h-3.7c0-0.3,0-0.6,0-0.9c0-3.4-1.2-6-3.3-7.7c2-0.9,4.3-1.9,6.7-2.9
			c13.2-5.6,18.2-6.4,20.1-6.4c0.1,0,0.1,0,0.2,0c0.3,0.3,0.8,1.2,1.5,3.2c0.7,2.1,1.3,5,1.6,8.1c0.8,6.6,0.7,14-0.2,19.7
			C86.1,49.4,84.4,51.3,84,51.4z"/>
		<path fill="#52E0E1" d="M11.5,51.3c-0.1,0-0.1,0-0.2,0c-0.3-0.3-0.8-1.2-1.5-3.2c-0.7-2.1-1.3-5-1.6-8.1c-0.8-6.6-0.7-14,0.2-19.7
			c1.1-6.5,2.8-8.4,3.2-8.5c0.3-0.1,0.8-0.2,1.8-0.2c4,0,11,2.3,19.8,6.5c2,1,3.9,1.9,5.6,2.8c-1.7,1.3-2.9,3-3.5,5.3h-2.1
			c-1,0-1.8,0.8-1.8,1.8c0,1,0.8,1.8,1.8,1.8H35c0.1,1.2,0.3,2.4,0.6,3.6h-6.1c-1,0-1.8,0.8-1.8,1.8s0.8,1.8,1.8,1.8h7.6
			c0.8,1.5,1.8,2.9,2.9,4.1c-2.4,1.1-5.4,2.4-8.5,3.7C18.4,50.5,13.4,51.3,11.5,51.3z"/>
		<path fill="#52E0E1" d="M41.7,37.4c-1.9-2.5-3-5.8-3-8.6c0-2.3,0.7-4,2.3-5.1c1.6-1.2,4-1.8,6.8-1.8c2.8,0,5.3,0.6,6.8,1.8
			c1.5,1.1,2.3,2.8,2.3,5.1c0,2.8-1.2,6.1-3,8.6c-1.8,2.4-4,3.8-6.1,3.8C45.7,41.2,43.5,39.8,41.7,37.4z"/>
		<g>
			<path fill="#2E2E2E" d="M121.4,40.9h12V45H116V18h5.4V40.9z"/>
			<path fill="#2E2E2E" d="M147.9,45c-0.2-0.5-0.4-0.9-0.5-1.4c-0.1-0.5-0.2-1-0.3-1.6c-0.6,1-1.3,1.8-2.2,2.4c-0.9,0.6-2,1-3.3,1
				c-2.1,0-3.7-0.5-4.9-1.6c-1.1-1.1-1.7-2.6-1.7-4.4c0-2,0.8-3.5,2.3-4.6c1.5-1.1,3.7-1.6,6.6-1.6h3v-1.6c0-1-0.3-1.7-0.8-2.2
				c-0.5-0.5-1.3-0.8-2.2-0.8c-0.9,0-1.6,0.2-2,0.6c-0.5,0.4-0.7,1-0.7,1.8l-5.2,0l0-0.1c-0.1-1.7,0.6-3.2,2.2-4.4
				c1.6-1.2,3.6-1.8,6.1-1.8c2.4,0,4.3,0.6,5.8,1.8c1.5,1.2,2.2,3,2.2,5.2v8.3c0,0.9,0.1,1.8,0.2,2.7c0.1,0.8,0.4,1.7,0.7,2.5H147.9z
				 M142.9,41.4c1,0,1.8-0.2,2.5-0.7c0.7-0.5,1.2-1,1.5-1.6v-2.8h-3c-1.2,0-2,0.3-2.6,0.9c-0.6,0.6-0.9,1.3-0.9,2.1
				c0,0.7,0.2,1.2,0.7,1.6C141.5,41.2,142.1,41.4,142.9,41.4z"/>
			<path fill="#2E2E2E" d="M167,29.6l-2-0.1c-0.8,0-1.5,0.2-2,0.5c-0.5,0.3-0.9,0.8-1.2,1.4V45h-5.4V25h5l0.2,3
				c0.5-1.1,1.1-1.9,1.8-2.5c0.7-0.6,1.6-0.9,2.6-0.9c0.3,0,0.5,0,0.8,0.1c0.2,0,0.5,0.1,0.7,0.2L167,29.6z"/>
			<path fill="#2E2E2E" d="M181.6,45c-0.2-0.5-0.4-0.9-0.5-1.4c-0.1-0.5-0.2-1-0.3-1.6c-0.6,1-1.3,1.8-2.2,2.4c-0.9,0.6-2,1-3.3,1
				c-2.1,0-3.7-0.5-4.9-1.6c-1.1-1.1-1.7-2.6-1.7-4.4c0-2,0.8-3.5,2.3-4.6c1.5-1.1,3.7-1.6,6.6-1.6h3v-1.6c0-1-0.3-1.7-0.8-2.2
				c-0.5-0.5-1.3-0.8-2.2-0.8c-0.9,0-1.6,0.2-2,0.6c-0.5,0.4-0.7,1-0.7,1.8l-5.2,0l0-0.1c-0.1-1.7,0.6-3.2,2.2-4.4
				c1.6-1.2,3.6-1.8,6.1-1.8c2.4,0,4.3,0.6,5.8,1.8c1.5,1.2,2.2,3,2.2,5.2v8.3c0,0.9,0.1,1.8,0.2,2.7c0.1,0.8,0.4,1.7,0.7,2.5H181.6z
				 M176.6,41.4c1,0,1.8-0.2,2.5-0.7c0.7-0.5,1.2-1,1.5-1.6v-2.8h-3c-1.2,0-2,0.3-2.6,0.9c-0.6,0.6-0.9,1.3-0.9,2.1
				c0,0.7,0.2,1.2,0.7,1.6C175.2,41.2,175.8,41.4,176.6,41.4z"/>
			<path fill="#2E2E2E" d="M206.7,22.2h-7.6V45h-5.4V22.2H186V18h20.7V22.2z"/>
			<path fill="#2E2E2E" d="M215,22.1h-5.4V18h5.4V22.1z M215,45h-5.4V25h5.4V45z"/>
			<path fill="#2E2E2E" d="M228.3,45.4c-2.9,0-5.2-0.9-6.9-2.8c-1.7-1.9-2.6-4.2-2.6-7.1v-0.7c0-3,0.8-5.4,2.5-7.4
				c1.6-1.9,3.8-2.9,6.6-2.9c2.7,0,4.8,0.8,6.3,2.4c1.5,1.6,2.2,3.8,2.2,6.6v2.9h-12l0,0.1c0.1,1.3,0.5,2.4,1.3,3.3s1.9,1.3,3.2,1.3
				c1.2,0,2.2-0.1,3-0.4s1.7-0.6,2.6-1.1l1.5,3.3c-0.8,0.7-1.9,1.2-3.2,1.7C231.4,45.2,229.9,45.4,228.3,45.4z M227.8,28.8
				c-1,0-1.8,0.4-2.4,1.1s-0.9,1.8-1.1,3l0.1,0.1h6.6v-0.5c0-1.1-0.3-2.1-0.8-2.8C229.7,29.1,228.9,28.8,227.8,28.8z"/>
		</g>
	</g>
</svg>
